<svg
	aria-hidden="true"
	xmlns="http://www.w3.org/2000/svg"
	fill="currentColor"
	viewBox="0 0 24 24"
	class="fui-icon fui-icon-outline icon-archive_up icon-archive_up-outline"
>
	<path
		fill-rule="evenodd"
		clip-rule="evenodd"
		d="M4,4C2.9,4,2,4.9,2,6s0.9,2,2,2h16c1.1,0,2-0.9,2-2s-0.9-2-2-2H4z M4,10h16v8c0,1.1-0.9,2-2,2H6 c-1.1,0-2-0.9-2-2V10z M9.3,13.3c-0.4,0.4-0.4,1,0,1.4c0.4,0.4,1,0.4,1.4,0l0.3-0.3V17c0,0.6,0.4,1,1,1s1-0.4,1-1v-2.6l0.3,0.3 c0.4,0.4,1,0.4,1.4,0c0.4-0.4,0.4-1,0-1.4l-2-2c-0.4-0.4-1-0.4-1.4,0C11.3,11.3,9.3,13.3,9.3,13.3z"
	/>
</svg>
